<?xml version="1.0" standalone="no"?>
<!DOCTYPE svg PUBLIC "-//W3C//DTD SVG 20010904//EN"
 "http://www.w3.org/TR/2001/REC-SVG-20010904/DTD/svg10.dtd">
<svg version="1.0" xmlns="http://www.w3.org/2000/svg"
 width="626.000000pt" height="626.000000pt" viewBox="0 0 626.000000 626.000000"
 preserveAspectRatio="xMidYMid meet">

<g transform="translate(0.000000,626.000000) scale(0.100000,-0.100000)"
fill="none" stroke="none">
<path d="M3580 3357 c-53 -17 -124 -93 -138 -149 -16 -63 -15 -95 4 -151 27
-78 29 -77 -179 -77 -129 0 -187 -4 -195 -12 -9 -9 -12 -69 -12 -210 l0 -199
-84 7 c-70 5 -91 3 -127 -13 -116 -51 -158 -178 -101 -305 17 -38 30 -52 73
-73 45 -23 63 -27 128 -25 42 2 84 2 93 1 16 -1 18 -20 20 -203 l3 -203 180
-3 c99 -1 191 0 204 3 26 7 25 17 -3 90 -42 109 5 240 105 290 110 56 252 15
304 -88 9 -18 19 -62 22 -98 5 -53 2 -74 -16 -113 -26 -59 -26 -72 -3 -82 9
-4 97 -9 195 -12 131 -3 181 -1 192 8 12 10 15 47 15 207 0 222 -3 215 89 189
67 -19 108 -14 167 20 58 33 91 75 110 141 15 52 15 60 -1 121 -11 38 -30 78
-47 98 -53 60 -158 84 -245 55 -71 -24 -71 -26 -66 181 3 140 1 187 -9 201
-12 16 -36 18 -198 23 -102 3 -189 9 -194 14 -5 5 -1 36 9 73 22 83 14 141
-28 204 -58 86 -165 122 -267 90z" fill="#7D88F2"/>
<path d="M2350 3339 c-14 -6 -44 -30 -67 -54 -58 -62 -73 -129 -48 -210 13
-41 16 -64 9 -83 l-9 -27 -185 -3 c-101 -1 -188 -6 -193 -11 -5 -5 -8 -92 -7
-194 1 -158 -2 -187 -15 -201 -20 -20 -33 -20 -78 -1 -56 23 -117 19 -178 -13
-68 -35 -102 -97 -101 -182 0 -68 11 -95 53 -141 64 -69 143 -87 229 -53 37
15 42 15 65 0 l25 -16 0 -195 0 -195 184 0 c102 0 187 4 190 9 3 5 -3 29 -14
52 -21 48 -26 123 -10 180 33 118 160 193 282 168 150 -32 232 -184 179 -334
-12 -32 -21 -63 -21 -67 0 -4 86 -8 190 -8 l190 0 0 174 0 173 -77 2 c-138 4
-217 57 -249 168 -29 101 -5 201 68 270 46 45 101 65 183 67 l70 2 0 169 0
170 -190 6 c-104 3 -191 6 -193 7 -1 1 -7 13 -12 27 -6 17 -5 35 5 59 32 76
10 191 -46 243 -52 48 -163 68 -229 42z"  fill="#F3DB53"/>
</g>
</svg>
